<svg width="44" height="111" viewBox="0 0 44 111" fill="none" xmlns="http://www.w3.org/2000/svg">
<path d="M44 73.615C44 66.9112 42.9274 60.6263 41.056 55.2113C42.9274 49.7979 44 43.5114 44 36.8075C44 16.4797 34.1498 0 22 0C9.8502 0 0 16.4797 0 36.8075C0 43.5114 1.0726 49.7962 2.94406 55.2113C1.0726 60.6246 0 66.9095 0 73.615C0 93.9428 9.8502 110.423 22 110.423C34.1498 110.423 44 93.9428 44 73.615ZM12.0983 36.5511L12.0851 26.6378C14.8555 25.7043 18.0261 25.1478 21.4071 25.0875L21.4218 36.5343L12.0969 36.5511H12.0983ZM21.4056 23.8238C18.0497 23.8825 14.8864 24.4137 12.0836 25.3221L12.0733 17.5808C14.8437 15.868 18.0143 14.8541 21.3939 14.7468L21.4056 23.8221V23.8238ZM22.5003 14.7451C25.8812 14.839 29.0548 15.8429 31.8281 17.5457L31.8384 25.2936C29.0327 24.3936 25.8695 23.8724 22.512 23.8238L22.5003 14.7435V14.7451ZM22.5297 36.5327L22.5149 25.0808C25.8945 25.1294 29.0695 25.6741 31.8414 26.5975L31.8546 36.5159L22.5297 36.5327ZM32.961 36.5142L32.9493 26.9964C34.2234 27.4875 35.4033 28.0573 36.4582 28.6992C39.4155 30.5595 41.8461 32.9126 42.258 36.4975L32.9625 36.5142H32.961ZM33.8158 26.0026C33.5333 25.8869 33.2391 25.7813 32.9478 25.6741L32.9375 18.2797C37.2836 21.3467 40.4998 26.2271 41.7298 31.9438C40.0246 29.4081 37.288 27.4422 33.8158 26.0026ZM41.4709 27.3517C40.3939 24.7372 38.9064 22.3758 37.0938 20.3763C35.8506 19.0054 34.4529 17.8054 32.936 16.8049L32.9242 7.46639C37.3837 12.4339 40.263 19.949 41.4724 27.3517H41.4709ZM31.8164 6.31167L31.8296 16.1261C29.0239 14.5155 25.8577 13.5736 22.5017 13.4848L22.487 1.88378C25.8783 2.0078 29.196 3.73236 31.8178 6.31167H31.8164ZM21.3806 1.88546L21.3953 13.4865C18.0393 13.587 14.8746 14.539 12.0748 16.1596L12.0616 6.35356C14.6701 3.75582 17.9893 2.02289 21.3806 1.88546ZM10.9566 7.51164L10.9698 16.8418C7.25781 19.3021 4.25639 23.0026 2.45261 27.4439C3.86209 19.3909 6.34123 12.873 10.9566 7.51164ZM10.9713 18.3166L10.9816 25.7026C9.51918 26.2472 8.16706 26.8975 6.9562 27.64C4.95673 28.8735 3.35455 30.2964 2.21726 32.0126C3.43253 26.2925 6.634 21.4004 10.9728 18.3183L10.9713 18.3166ZM10.4902 27.226C10.6506 27.1607 10.8198 27.102 10.9831 27.0383L10.9964 36.5511L1.69937 36.5678C2.42471 31.6925 5.97192 29.2824 10.4902 27.2277V27.226ZM12.1483 72.4804C12.1454 69.8575 12.1381 65.267 12.1351 62.6039C14.9026 61.6721 18.0732 61.1174 21.4483 61.0587L21.4718 72.4402V72.4653C19.0398 72.4687 14.5553 72.4771 12.1469 72.4821L12.1483 72.4804ZM31.8576 37.7745C31.8576 38.6008 31.8605 39.6147 31.862 40.7024C31.8649 43.0974 31.8693 45.8426 31.8708 47.6895C29.1004 48.623 25.9283 49.1795 22.5488 49.2398L22.5341 37.793C23.6581 37.7913 25.3516 37.788 27.0583 37.7846C28.8606 37.7812 30.6791 37.7779 31.859 37.7762L31.8576 37.7745ZM22.562 59.5788C22.562 59.376 22.5503 50.7046 22.5503 50.5018C25.7282 50.4498 28.9194 49.9638 31.8738 49.0035C31.8738 49.9538 31.8782 52.5632 31.8796 53.4766L31.8841 56.7448C29.1136 58.4576 25.943 59.4716 22.562 59.5788ZM31.8855 58.1643C31.8885 60.7453 31.8958 65.3492 31.8988 67.9704C29.2902 70.5681 25.971 72.3011 22.5797 72.4385C22.5797 72.2374 22.565 61.0386 22.565 60.8375C25.8342 60.7453 29.018 59.8285 31.8855 58.1643ZM21.4424 49.4627C18.1777 49.5566 14.9894 50.4683 12.1219 52.1308C12.1175 49.5281 12.113 44.9275 12.1086 42.2829C14.7187 39.6851 18.0364 37.9522 21.4277 37.8148L21.4424 49.461V49.4627ZM21.4365 50.723L21.4483 59.8034C18.2806 59.8587 15.0836 60.3448 12.1336 61.3017C12.1307 59.071 12.1263 55.7845 12.1233 53.5504C14.8908 51.8409 18.0585 50.8286 21.4351 50.723H21.4365ZM27.6159 72.4536C29.1372 71.758 30.5937 70.7743 31.9017 69.6044L31.9061 72.4469L27.6174 72.4536H27.6159ZM33.011 72.4452L33.0066 68.5452C34.1645 67.3603 35.2489 65.9995 36.2479 64.4794C36.3347 64.5296 36.4244 64.5782 36.5083 64.6302C39.4655 66.4905 41.8961 68.8436 42.308 72.4301L33.0125 72.4469L33.011 72.4452ZM36.8952 63.4503C37.5146 62.4263 38.0943 61.3352 38.6372 60.1906C40.0952 62.4749 41.1737 65.0727 41.7784 67.8749C40.6102 66.1285 38.955 64.6905 36.8952 63.4503ZM41.5194 63.2844C40.8853 61.7425 40.1085 60.2861 39.2037 58.9436C39.4111 58.4643 39.6156 57.9766 39.8098 57.4805C39.8893 57.2794 39.9569 57.0666 40.0334 56.8621C40.644 58.8951 41.1428 61.0436 41.518 63.2861L41.5194 63.2844ZM40.1732 52.8582C38.696 58.0638 36.4009 62.9308 33.0037 66.814C33.0007 64.1995 32.9949 60.1034 32.9919 57.4839C35.037 56.1163 36.8864 54.3834 38.4268 52.332C38.7534 51.9013 39.0639 51.4554 39.3611 50.9995C40.1953 49.7174 40.9147 48.3398 41.5077 46.8834C41.1693 48.8996 40.7279 50.904 40.1732 52.8599V52.8582ZM38.7667 49.7795C37.2366 52.2633 35.268 54.3934 32.989 56.009C32.986 54.0448 32.9816 50.6208 32.9787 48.6247C34.4249 48.0851 35.7064 47.465 37.0012 46.6907C37.0012 46.6907 37.0041 46.6907 37.0041 46.689C39.0035 45.4555 40.6043 44.0326 41.7431 42.3164C41.1708 45.0147 40.1453 47.5421 38.7652 49.7812L38.7667 49.7795ZM36.317 45.665C35.218 46.3153 34.0718 46.8532 32.9772 47.289L32.9713 43.4008C32.9713 43.022 32.9698 42.4019 32.9684 41.7013C32.9669 40.2985 32.964 38.5656 32.964 37.7762L42.2595 37.7594C41.8637 41.3644 39.2581 43.9237 36.317 45.665ZM16.3915 37.8047C15.419 38.2522 14.473 38.8086 13.5652 39.4723C13.0694 39.836 12.5824 40.2315 12.1071 40.6538L12.1027 37.8114L16.3915 37.803V37.8047ZM10.9964 37.8148L11.0007 41.7147C10.8801 41.8371 10.7624 41.9644 10.6432 42.0901C9.61922 43.1845 8.65408 44.4197 7.75954 45.7806C7.72424 45.7588 7.68889 45.7371 7.65358 45.7153C4.66395 43.9002 2.10982 41.4617 1.7008 37.8299L10.9964 37.8131V37.8148ZM2.33055 42.541C3.44872 44.1449 5.04356 45.551 6.98124 46.7292C7.02537 46.756 7.06802 46.7828 7.11216 46.8096C6.49276 47.8353 5.91306 48.9247 5.37016 50.0694C5.31866 49.989 5.26867 49.9068 5.21865 49.8247C3.83859 47.599 2.81159 45.0884 2.22897 42.3851L2.33055 42.541ZM2.48795 46.9756C3.08088 48.4152 3.79736 49.7778 4.62568 51.0448C4.68453 51.1353 4.74338 51.2275 4.8037 51.3163C4.51092 51.9934 4.21819 52.6889 3.97395 53.3995C3.92246 53.2286 3.87391 53.056 3.82388 52.885C3.28245 51.0046 2.83223 49.032 2.48795 46.9772V46.9756ZM3.97245 56.9224L3.98128 56.9442C4.15783 56.3442 4.34027 55.7476 4.53595 55.1677L4.53157 55.1576C6.00432 50.8303 8.11557 46.7225 11.0037 43.4359C11.0066 45.737 11.0125 50.4985 11.0169 52.7761C10.1018 53.4079 8.74823 54.561 8.04202 55.1643C7.15337 56.004 6.32946 56.9291 5.58057 57.928V57.9246C4.34618 59.5771 3.30305 61.4123 2.49973 63.3782C2.86608 61.1777 3.35601 59.0341 3.97101 56.9224H3.97245ZM11.0199 54.194C11.0228 56.1582 11.0272 59.5822 11.0302 61.5783C9.58245 62.1196 8.30243 62.7397 7.00476 63.5157C5.00529 64.7492 3.40305 66.1721 2.26575 67.8882C3.47367 62.1983 6.68697 57.266 11.0214 54.194H11.0199ZM11.0317 62.9676L11.0449 72.4854L1.74786 72.5022C2.37168 67.3838 7.0651 64.5816 11.0317 62.9693V62.9676ZM22.6282 108.373L22.6135 96.7718C25.9695 96.6713 29.1328 95.7193 31.9341 94.0987L31.9473 103.905C29.3387 106.502 26.0195 108.235 22.6282 108.373ZM21.5057 95.5148C18.1247 95.421 14.9511 94.4171 12.1763 92.7143L12.166 84.9663C14.9732 85.8663 18.135 86.3876 21.4924 86.4345L21.5042 95.5148H21.5057ZM31.9223 84.9378L31.9326 92.6791C29.1622 94.392 25.9916 95.4059 22.6121 95.5132L22.6003 86.4362C25.9563 86.3775 29.1195 85.8462 31.9238 84.9378H31.9223ZM33.0508 102.747L33.039 93.4165C36.751 90.9562 39.751 87.2557 41.5562 82.8144C40.1467 90.8674 37.6676 97.3852 33.0522 102.747H33.0508ZM33.036 91.9417L33.0258 84.5557C34.4882 84.011 35.8403 83.3608 37.0512 82.62C39.0506 81.3865 40.6528 79.9636 41.7901 78.2474C40.5749 83.9675 37.3734 88.8596 33.0346 91.9417H33.036ZM42.308 73.6905C41.5827 78.5658 38.0354 80.9759 33.5172 83.0306C33.3568 83.096 33.1876 83.1546 33.0258 83.2183L33.0125 73.7056L42.308 73.6888V73.6905ZM31.9061 73.7089L31.9194 83.6222C29.149 84.5557 25.9769 85.1121 22.5973 85.1725L22.5827 73.7256L31.9076 73.7089H31.9061ZM21.4748 73.7273L21.4895 85.1792C18.1099 85.1306 14.9349 84.5859 12.1631 83.6624L12.1498 73.7441L21.4748 73.7273ZM11.0449 73.7458L11.0581 83.2635C9.78254 82.7725 8.60403 82.2027 7.54913 81.5608C4.59039 79.7005 2.16132 77.3474 1.74937 73.7625L11.0449 73.7458ZM11.0596 84.5859L11.0699 91.9802C6.72377 88.9115 3.50752 84.0311 2.27753 78.3161C4.05925 81.0328 7.45204 83.3004 11.0596 84.5859ZM2.535 82.9066C3.61198 85.5211 5.09948 87.8825 6.91209 89.8819C8.15679 91.2529 9.55303 92.4529 11.0699 93.4551L11.0831 102.794C6.6237 97.826 3.74439 90.311 2.535 82.9083V82.9066ZM12.191 103.948L12.1778 94.1339C14.9835 95.7445 18.1497 96.6863 21.5057 96.7752L21.5204 108.376C18.1305 108.252 14.8114 106.528 12.1895 103.95L12.191 103.948Z" fill="#4A9D3C"/>
</svg>
