<svg width="49" height="49" viewBox="0 0 49 49" fill="none" xmlns="http://www.w3.org/2000/svg">
<path d="M31.8185 22.4969C31.4852 21.2491 30.8332 20.0638 29.8562 19.0868C28.8792 18.1097 27.6959 17.4598 26.446 17.1244C26.9335 15.3037 28.8063 8.31451 29.2562 6.63336C15.6571 2.89193 2.91206 15.6474 6.65141 29.2382C8.29506 28.7986 15.3633 26.9029 17.1424 26.428C17.7465 28.9403 20.0005 31.1943 22.5129 31.7985C22.0254 33.6192 20.1526 40.6083 19.7026 42.2894C33.3018 46.0309 46.0468 33.2754 42.3075 19.6846L39.8285 20.3492L31.8165 22.4949L31.8185 22.4969ZM20.988 27.957C16.5133 23.1969 23.2191 16.4973 27.973 20.97C32.4498 25.7301 25.7439 32.4297 20.988 27.957Z" fill="#4A9D3C"/>
<path d="M48.1257 18.1286C47.0529 14.108 44.9447 10.3062 41.7928 7.15431C32.4101 -2.32217 16.6736 -2.44717 7.17001 7.15431C-8.23319 22.6825 2.864 48.908 24.4814 48.9455C40.3471 49.1309 52.415 33.4193 48.1257 18.1286ZM39.9096 39.8918C26.0605 53.616 2.72235 43.727 2.66193 24.4637C2.72859 5.11071 26.0626 -4.63869 39.9096 9.03545C48.3361 17.4099 48.4716 31.4194 39.9096 39.8918Z" fill="#4A9D3C"/>
</svg>
