<svg width="54" height="54" viewBox="0 0 54 54" fill="none" xmlns="http://www.w3.org/2000/svg">
<path d="M53.5027 25.3636C53.1651 24.8663 52.6294 24.4579 51.9967 24.2639C46.6456 22.5901 41.5957 20.138 36.9986 17.0047C33.8652 12.4078 31.4131 7.35821 29.7392 2.00935C29.5452 1.3746 29.1368 0.840888 28.6395 0.503299C28.1422 0.161668 27.5701 0 27.004 0C26.438 0 25.8659 0.161668 25.3686 0.503299C24.8713 0.840888 24.4629 1.37662 24.2689 2.00935C22.595 7.36023 20.1429 12.4098 17.0095 17.0047C12.4124 20.138 7.36257 22.5901 2.01149 24.2639C1.37672 24.4579 0.843039 24.8663 0.503416 25.3636C0.161772 25.8608 0 26.4349 0 26.9989C0 27.5649 0.161772 28.1371 0.503416 28.6344C0.841017 29.1317 1.37672 29.54 2.00947 29.734C7.36055 31.4078 12.4104 33.8599 17.0054 36.9932C20.1388 41.5901 22.591 46.6397 24.2648 51.9886C24.4589 52.6233 24.8673 53.157 25.3646 53.4946C25.8619 53.8363 26.436 53.998 27 54C27.566 54 28.1382 53.8382 28.6355 53.4966C29.1328 53.157 29.5411 52.6233 29.7352 51.9886C31.409 46.6377 33.8612 41.5881 36.9946 36.9932C41.5916 33.8599 46.6415 31.4078 51.9906 29.734C52.6254 29.54 53.159 29.1317 53.4966 28.6344C53.8383 28.1371 54 27.5629 54 26.9989C54 26.4329 53.8383 25.8608 53.4966 25.3636H53.5027ZM26.8484 2.81587L26.9009 2.72901L27.004 2.70068L27.1071 2.72901L27.1597 2.81587C28.1948 6.12505 29.5128 9.32305 31.0957 12.3795C30.0222 11.4173 28.9832 10.4126 27.9805 9.36547L27.004 8.34466L26.0276 9.36547C25.0269 10.4126 23.9879 11.4173 22.9124 12.3795C24.4953 9.32305 25.8133 6.12505 26.8484 2.81587ZM2.8181 27.1566L2.73113 27.104L2.70285 27.001L2.73113 26.8978L2.8181 26.8453C6.12739 25.8103 9.32547 24.4923 12.3821 22.9094C11.4198 23.9829 10.4151 25.022 9.36794 26.0226L8.34704 26.9989L9.36794 27.9753C10.4151 28.9759 11.4198 30.015 12.3821 31.0905C9.32547 29.5076 6.12739 28.1896 2.8181 27.1546V27.1566ZM27.1597 51.184L27.1071 51.271L27.004 51.2993L26.9009 51.271L26.8484 51.184C25.8133 47.8749 24.4953 44.6768 22.9124 41.6204C23.9859 42.5826 25.0249 43.5873 26.0276 44.6344L27.004 45.6552L27.9805 44.6344C28.9812 43.5873 30.0202 42.5826 31.0957 41.6204C29.5128 44.6768 28.1948 47.8749 27.1597 51.184ZM35.0559 35.0505C32.1873 37.0417 29.4926 39.2896 27.004 41.77C24.5155 39.2896 21.8207 37.0417 18.9521 35.0505C16.9609 32.182 14.7129 29.4874 12.2305 26.9989C14.7109 24.5105 16.9589 21.8159 18.9521 18.9474C21.8207 16.9562 24.5155 14.7083 27.004 12.226C29.4926 14.7063 32.1873 16.9542 35.0559 18.9453C37.0472 21.8138 39.2952 24.5085 41.7776 26.9969C39.2972 29.4854 37.0492 32.1801 35.058 35.0485L35.0559 35.0505ZM51.19 27.1546C47.8807 28.1896 44.6826 29.5076 41.626 31.0905C42.5883 30.017 43.593 28.978 44.6402 27.9753L45.6611 26.9989L44.6402 26.0226C43.593 25.022 42.5883 23.9829 41.626 22.9075C44.6826 24.4903 47.8807 25.8083 51.19 26.8433L51.277 26.8959L51.3052 26.9989L51.279 27.1021L51.1921 27.1546H51.19Z" fill="#4A9D3C"/>
</svg>
